<?xml version="1.0" encoding="UTF-8"?><svg id="Layer_1" xmlns="http://www.w3.org/2000/svg" xmlns:xlink="http://www.w3.org/1999/xlink" viewBox="0 0 260.86 60.07"><defs><style>.cls-1{fill:#fff;}.cls-2{fill:none;}.cls-3{clip-path:url(#clippath);}</style><clipPath id="clippath"><rect class="cls-2" width="60.07" height="60.07"/></clipPath></defs><path class="cls-1" d="M72.62,30.01c0-5,1.7-9.22,5.1-12.68,3.41-3.46,7.52-5.19,12.32-5.19s8.93,1.72,12.31,5.17c3.37,3.44,5.06,7.67,5.06,12.69s-1.66,9.3-4.98,12.75c-3.32,3.45-7.45,5.17-12.39,5.17s-9.22-1.71-12.5-5.13-4.92-7.68-4.92-12.79ZM81.11,30.01c0,1.82.28,3.47.83,4.96.56,1.49,1.54,2.76,2.93,3.8,1.4,1.03,3.12,1.54,5.16,1.54,2.93,0,5.14-1,6.63-3,1.49-2.01,2.24-4.44,2.24-7.3s-.76-5.23-2.28-7.26c-1.52-2.02-3.72-3.03-6.59-3.03s-5.05,1.01-6.6,3.03c-1.55,2.02-2.32,4.44-2.32,7.26Z"/><path class="cls-1" d="M109.33,30.01c0-5,1.7-9.22,5.1-12.68,3.41-3.46,7.52-5.19,12.32-5.19s8.93,1.72,12.31,5.17c3.37,3.44,5.06,7.67,5.06,12.69s-1.66,9.3-4.98,12.75c-3.32,3.45-7.45,5.17-12.39,5.17s-9.22-1.71-12.5-5.13c-3.28-3.42-4.92-7.68-4.92-12.79ZM117.82,30.01c0,1.82.28,3.47.83,4.96.56,1.49,1.54,2.76,2.93,3.8,1.4,1.03,3.12,1.54,5.16,1.54,2.93,0,5.14-1,6.63-3,1.49-2.01,2.24-4.44,2.24-7.3s-.76-5.23-2.28-7.26c-1.52-2.02-3.72-3.03-6.59-3.03s-5.05,1.01-6.6,3.03c-1.55,2.02-2.32,4.44-2.32,7.26Z"/><path class="cls-1" d="M155.47,25.86v21.44h-7.87V12.76h7.87l13.72,21.44h.08V12.76h7.87v34.54h-7.87l-13.72-21.44h-.08Z"/><path class="cls-1" d="M201.93,12.76v6.91h-11.89v6.87h11.39v6.9h-11.39v6.95h11.89v6.91h-19.76V12.76h19.76Z"/><path class="cls-1" d="M206.45,12.76h12.35c3.32,0,6.02.89,8.12,2.66,2.09,1.77,3.14,4.31,3.14,7.61,0,2.54-.64,4.67-1.9,6.38-1.27,1.72-3,2.92-5.17,3.62l11.89,14.28h-10l-10.55-13.65v13.65h-7.87V12.76ZM214.32,28.09h.92c.72,0,1.33-.01,1.84-.04.51-.03,1.08-.13,1.72-.29s1.15-.4,1.54-.71.72-.75,1-1.33c.29-.59.43-1.31.43-2.14s-.15-1.56-.43-2.14c-.28-.58-.61-1.03-1-1.33s-.9-.54-1.54-.71-1.22-.26-1.72-.29c-.5-.03-1.11-.04-1.84-.04h-.92v9.04Z"/><path class="cls-1" d="M249.14,12.14c1.87,0,3.7.27,5.48.82,1.79.54,3.11,1.07,3.98,1.6l1.27.85-3.18,6.27c-.25-.17-.6-.38-1.04-.64-.44-.27-1.29-.63-2.52-1.07-1.22-.44-2.37-.67-3.43-.67-1.31,0-2.32.28-3.03.83-.72.56-1.07,1.31-1.07,2.25,0,.48.17.93.5,1.33.33.4.9.83,1.71,1.29.81.46,1.53.83,2.14,1.11.61.28,1.56.7,2.85,1.25,2.23.95,4.14,2.24,5.71,3.87,1.57,1.63,2.36,3.48,2.36,5.55s-.36,3.72-1.07,5.2c-.71,1.47-1.68,2.63-2.92,3.48-1.24.83-2.62,1.45-4.13,1.85-1.51.41-3.14.61-4.89.61-1.51,0-3-.15-4.45-.46-1.45-.31-2.66-.68-3.64-1.14-.97-.46-1.85-.92-2.63-1.36-.78-.45-1.36-.83-1.72-1.14l-.54-.46,3.93-6.62c.33.28.79.64,1.38,1.07.59.44,1.63,1.02,3.13,1.74,1.49.72,2.81,1.08,3.96,1.08,3.32,0,4.98-1.13,4.98-3.39,0-.47-.12-.91-.36-1.31-.23-.41-.65-.81-1.25-1.21-.6-.41-1.14-.73-1.6-.97-.46-.24-1.21-.6-2.25-1.08-1.05-.49-1.82-.86-2.32-1.11-2.1-1.04-3.72-2.33-4.87-3.88-1.14-1.55-1.71-3.21-1.71-4.99,0-3.1,1.14-5.64,3.43-7.61,2.29-1.96,4.9-2.95,7.83-2.95Z"/><path class="cls-1" d="M36.28,26.43c.07-.08.14-.15.21-.22.07-.07.15-.14.22-.21,1.32-1.41,2.11-3.15,2.36-4.94-1.79.25-3.53,1.04-4.94,2.36-.07.07-.14.15-.21.22-.07.07-.15.14-.22.21-1.32,1.41-2.11,3.14-2.36,4.94,1.79-.25,3.53-1.04,4.94-2.36Z"/><path class="cls-1" d="M21.97,32.23c.06-.06.12-.12.18-.17.48-.56.73-1.26.73-2s-.26-1.44-.73-2c-.06-.06-.12-.12-.18-.18s-.11-.12-.17-.18c-.56-.48-1.26-.74-2-.74-.82,0-1.6.32-2.18.91-.58.58-.91,1.36-.91,2.18s.32,1.6.91,2.18c.58.58,1.36.9,2.18.9.74,0,1.44-.26,2-.73.06-.06.11-.12.17-.18Z"/><path class="cls-1" d="M26.21,15.94c2.12-2.12,5.58-2.12,7.7,0,1.03,1.03,1.56,2.38,1.59,3.74,1.14-.53,2.35-.86,3.58-.99-.24-1.95-1.1-3.83-2.59-5.32-1.77-1.77-4.1-2.66-6.43-2.66s-4.65.89-6.43,2.66c-1.49,1.49-2.35,3.38-2.59,5.32,1.23.13,2.44.46,3.58.99.03-1.36.56-2.71,1.59-3.74Z"/><path class="cls-1" d="M33.92,44.18c-1.06,1.06-2.46,1.59-3.85,1.59s-2.79-.53-3.85-1.59c-1.03-1.03-1.56-2.38-1.59-3.74-1.13.52-2.33.86-3.58,1,.24,2.01,1.14,3.86,2.6,5.31,1.72,1.72,4,2.66,6.43,2.66s4.71-.95,6.43-2.66c1.45-1.45,2.35-3.31,2.6-5.31-1.25-.14-2.46-.47-3.58-1-.03,1.36-.56,2.7-1.59,3.74Z"/><path class="cls-1" d="M41.44,21.04c-.14,1.23-.47,2.44-.99,3.58,1.36.03,2.71.56,3.74,1.59,2.12,2.12,2.12,5.58,0,7.7-1.03,1.03-2.38,1.56-3.73,1.59.52,1.12.86,2.33.99,3.58,2.01-.24,3.86-1.14,5.31-2.59,3.55-3.55,3.55-9.31,0-12.85-1.49-1.49-3.38-2.36-5.32-2.59Z"/><g class="cls-3"><path class="cls-1" d="M30.06,0C13.46,0,0,13.46,0,30.06s13.46,30.06,30.06,30.06,30.06-13.46,30.06-30.06S46.67,0,30.06,0ZM48.43,38.15c-1.89,1.9-4.34,3.05-6.97,3.3-.26,2.63-1.4,5.08-3.3,6.97-2.16,2.16-5.04,3.35-8.1,3.35s-5.93-1.19-8.1-3.35c-1.89-1.89-3.04-4.33-3.3-6.97-2.63-.25-5.08-1.4-6.97-3.3-4.46-4.46-4.46-11.72,0-16.19,1.95-1.95,4.43-3.05,6.98-3.29.25-2.55,1.35-5.03,3.29-6.98,4.46-4.46,11.73-4.46,16.19,0,1.95,1.95,3.05,4.43,3.29,6.98,2.55.25,5.03,1.35,6.98,3.29,4.46,4.46,4.46,11.72,0,16.19Z"/></g><path class="cls-1" d="M14.35,30.06c0-1.46.57-2.82,1.6-3.85s2.33-1.56,3.74-1.59c-.52-1.14-.86-2.35-.99-3.58-1.95.24-3.83,1.1-5.32,2.59-3.55,3.54-3.55,9.31,0,12.85,1.45,1.45,3.31,2.35,5.31,2.59.14-1.25.47-2.45.99-3.58-1.41-.03-2.73-.59-3.73-1.59-1.03-1.03-1.6-2.4-1.6-3.85Z"/><path class="cls-1" d="M26.21,23.64c-.07-.07-.14-.15-.21-.22-1.41-1.32-3.15-2.11-4.94-2.36.25,1.79,1.04,3.53,2.36,4.94.07.07.15.14.22.21.07.07.14.14.21.22,1.41,1.32,3.15,2.11,4.94,2.36-.25-1.8-1.04-3.53-2.36-4.94-.07-.07-.15-.14-.22-.21Z"/><path class="cls-1" d="M42.52,32.24c1.21-1.2,1.21-3.16,0-4.37-1.14-1.14-2.97-1.2-4.18-.17-.06.06-.11.12-.17.18s-.12.12-.18.17c-.98,1.15-.98,2.85,0,4,.06.06.12.11.18.17s.11.12.17.18c1.21,1.03,3.04.97,4.18-.17Z"/><path class="cls-1" d="M30.06,16.71c-.79,0-1.58.3-2.18.9-1.15,1.15-1.2,2.97-.17,4.19.06.06.12.11.18.17.06.06.11.12.17.18,1.15.98,2.85.98,4,0,.06-.06.12-.12.17-.18.06-.06.12-.11.18-.17,1.03-1.21.98-3.04-.17-4.19-.6-.6-1.39-.9-2.18-.9Z"/><path class="cls-1" d="M33.92,36.48c.07.07.14.14.21.22,1.38,1.29,3.1,2.11,4.95,2.37-.26-1.85-1.07-3.57-2.37-4.95-.07-.07-.15-.14-.22-.21-.07-.07-.14-.15-.21-.22-1.41-1.32-3.15-2.11-4.94-2.36.25,1.79,1.04,3.53,2.36,4.94.08.07.15.14.22.21Z"/><path class="cls-1" d="M26.01,36.7c.07-.08.14-.15.21-.22.07-.07.14-.14.22-.21,1.32-1.41,2.11-3.15,2.36-4.94-1.79.25-3.53,1.04-4.94,2.36-.07.07-.14.15-.21.22-.07.07-.15.14-.22.21-1.29,1.38-2.11,3.09-2.37,4.95,1.85-.26,3.57-1.07,4.95-2.37Z"/><path class="cls-1" d="M32.25,42.51c1.15-1.14,1.2-2.97.17-4.18-.06-.06-.12-.12-.18-.18s-.11-.12-.17-.18c-.56-.48-1.26-.74-2-.74s-1.44.26-2,.74c-.06.06-.11.12-.17.18s-.12.12-.18.18c-1.03,1.21-.98,3.04.17,4.18,1.2,1.21,3.16,1.21,4.37,0Z"/></svg>