<svg xmlns="http://www.w3.org/2000/svg" xmlns:xlink="http://www.w3.org/1999/xlink" width="500" zoomAndPan="magnify" viewBox="0 0 375 374.999991" height="500" preserveAspectRatio="xMidYMid meet" version="1.0"><defs><g/><clipPath id="0b4a0d1fba"><path d="M 36.605469 139.804688 L 108.605469 139.804688 L 108.605469 211.804688 L 36.605469 211.804688 Z M 36.605469 139.804688 " clip-rule="nonzero"/></clipPath></defs><rect x="-37.5" width="450" fill="#ffffff" y="-37.499999" height="449.999989" fill-opacity="1"/><rect x="-37.5" width="450" fill="#ffffff" y="-37.499999" height="449.999989" fill-opacity="1"/><g fill="#ffffff" fill-opacity="1"><g transform="translate(117.134484, 195.895226)"><g><path d="M 1.078125 -19.4375 C 1.078125 -25.050781 2.988281 -29.800781 6.8125 -33.6875 C 10.644531 -37.570312 15.257812 -39.515625 20.65625 -39.515625 C 26.082031 -39.515625 30.691406 -37.578125 34.484375 -33.703125 C 38.273438 -29.835938 40.171875 -25.082031 40.171875 -19.4375 C 40.171875 -13.757812 38.304688 -8.984375 34.578125 -5.109375 C 30.847656 -1.234375 26.207031 0.703125 20.65625 0.703125 C 14.976562 0.703125 10.296875 -1.21875 6.609375 -5.0625 C 2.921875 -8.90625 1.078125 -13.695312 1.078125 -19.4375 Z M 10.625 -19.4375 C 10.625 -17.394531 10.9375 -15.535156 11.5625 -13.859375 C 12.195312 -12.179688 13.296875 -10.757812 14.859375 -9.59375 C 16.429688 -8.4375 18.363281 -7.859375 20.65625 -7.859375 C 23.945312 -7.859375 26.429688 -8.984375 28.109375 -11.234375 C 29.785156 -13.492188 30.625 -16.226562 30.625 -19.4375 C 30.625 -22.601562 29.769531 -25.320312 28.0625 -27.59375 C 26.351562 -29.863281 23.882812 -31 20.65625 -31 C 17.457031 -31 14.984375 -29.863281 13.234375 -27.59375 C 11.492188 -25.320312 10.625 -22.601562 10.625 -19.4375 Z M 10.625 -19.4375 "/></g></g></g><g fill="#ffffff" fill-opacity="1"><g transform="translate(158.387811, 195.895226)"><g><path d="M 1.078125 -19.4375 C 1.078125 -25.050781 2.988281 -29.800781 6.8125 -33.6875 C 10.644531 -37.570312 15.257812 -39.515625 20.65625 -39.515625 C 26.082031 -39.515625 30.691406 -37.578125 34.484375 -33.703125 C 38.273438 -29.835938 40.171875 -25.082031 40.171875 -19.4375 C 40.171875 -13.757812 38.304688 -8.984375 34.578125 -5.109375 C 30.847656 -1.234375 26.207031 0.703125 20.65625 0.703125 C 14.976562 0.703125 10.296875 -1.21875 6.609375 -5.0625 C 2.921875 -8.90625 1.078125 -13.695312 1.078125 -19.4375 Z M 10.625 -19.4375 C 10.625 -17.394531 10.9375 -15.535156 11.5625 -13.859375 C 12.195312 -12.179688 13.296875 -10.757812 14.859375 -9.59375 C 16.429688 -8.4375 18.363281 -7.859375 20.65625 -7.859375 C 23.945312 -7.859375 26.429688 -8.984375 28.109375 -11.234375 C 29.785156 -13.492188 30.625 -16.226562 30.625 -19.4375 C 30.625 -22.601562 29.769531 -25.320312 28.0625 -27.59375 C 26.351562 -29.863281 23.882812 -31 20.65625 -31 C 17.457031 -31 14.984375 -29.863281 13.234375 -27.59375 C 11.492188 -25.320312 10.625 -22.601562 10.625 -19.4375 Z M 10.625 -19.4375 "/></g></g></g><g fill="#ffffff" fill-opacity="1"><g transform="translate(199.641138, 195.895226)"><g><path d="M 11.671875 -24.09375 L 11.671875 0 L 2.828125 0 L 2.828125 -38.8125 L 11.671875 -38.8125 L 27.09375 -14.71875 L 27.1875 -14.71875 L 27.1875 -38.8125 L 36.03125 -38.8125 L 36.03125 0 L 27.1875 0 L 11.765625 -24.09375 Z M 11.671875 -24.09375 "/></g></g></g><g fill="#ffffff" fill-opacity="1"><g transform="translate(238.495475, 195.895226)"><g><path d="M 25.03125 -38.8125 L 25.03125 -31.046875 L 11.671875 -31.046875 L 11.671875 -23.328125 L 24.46875 -23.328125 L 24.46875 -15.578125 L 11.671875 -15.578125 L 11.671875 -7.765625 L 25.03125 -7.765625 L 25.03125 0 L 2.828125 0 L 2.828125 -38.8125 Z M 25.03125 -38.8125 "/></g></g></g><g fill="#ffffff" fill-opacity="1"><g transform="translate(265.778177, 195.895226)"><g><path d="M 2.828125 -38.8125 L 16.703125 -38.8125 C 20.429688 -38.8125 23.472656 -37.816406 25.828125 -35.828125 C 28.179688 -33.835938 29.359375 -30.988281 29.359375 -27.28125 C 29.359375 -24.425781 28.644531 -22.035156 27.21875 -20.109375 C 25.789062 -18.179688 23.851562 -16.828125 21.40625 -16.046875 L 34.765625 0 L 23.53125 0 L 11.671875 -15.34375 L 11.671875 0 L 2.828125 0 Z M 11.671875 -21.59375 L 12.703125 -21.59375 C 13.515625 -21.59375 14.203125 -21.609375 14.765625 -21.640625 C 15.335938 -21.671875 15.984375 -21.78125 16.703125 -21.96875 C 17.421875 -22.15625 18 -22.421875 18.4375 -22.765625 C 18.875 -23.109375 19.25 -23.609375 19.5625 -24.265625 C 19.882812 -24.929688 20.046875 -25.734375 20.046875 -26.671875 C 20.046875 -27.617188 19.882812 -28.421875 19.5625 -29.078125 C 19.25 -29.734375 18.875 -30.234375 18.4375 -30.578125 C 18 -30.921875 17.421875 -31.1875 16.703125 -31.375 C 15.984375 -31.5625 15.335938 -31.671875 14.765625 -31.703125 C 14.203125 -31.734375 13.515625 -31.75 12.703125 -31.75 L 11.671875 -31.75 Z M 11.671875 -21.59375 "/></g></g></g><g fill="#ffffff" fill-opacity="1"><g transform="translate(299.458206, 195.895226)"><g><path d="M 17.125 -39.515625 C 19.226562 -39.515625 21.28125 -39.207031 23.28125 -38.59375 C 25.289062 -37.988281 26.78125 -37.390625 27.75 -36.796875 L 29.171875 -35.84375 L 25.59375 -28.796875 C 25.3125 -28.984375 24.921875 -29.222656 24.421875 -29.515625 C 23.921875 -29.816406 22.976562 -30.21875 21.59375 -30.71875 C 20.21875 -31.21875 18.929688 -31.46875 17.734375 -31.46875 C 16.265625 -31.46875 15.128906 -31.15625 14.328125 -30.53125 C 13.523438 -29.90625 13.125 -29.0625 13.125 -28 C 13.125 -27.457031 13.3125 -26.957031 13.6875 -26.5 C 14.0625 -26.050781 14.703125 -25.566406 15.609375 -25.046875 C 16.523438 -24.535156 17.328125 -24.117188 18.015625 -23.796875 C 18.703125 -23.484375 19.769531 -23.015625 21.21875 -22.390625 C 23.726562 -21.328125 25.867188 -19.878906 27.640625 -18.046875 C 29.410156 -16.210938 30.296875 -14.132812 30.296875 -11.8125 C 30.296875 -9.582031 29.894531 -7.632812 29.09375 -5.96875 C 28.300781 -4.3125 27.207031 -3.007812 25.8125 -2.0625 C 24.414062 -1.125 22.867188 -0.429688 21.171875 0.015625 C 19.472656 0.472656 17.640625 0.703125 15.671875 0.703125 C 13.972656 0.703125 12.304688 0.53125 10.671875 0.1875 C 9.046875 -0.15625 7.679688 -0.582031 6.578125 -1.09375 C 5.484375 -1.613281 4.5 -2.125 3.625 -2.625 C 2.75 -3.132812 2.101562 -3.5625 1.6875 -3.90625 L 1.078125 -4.421875 L 5.5 -11.859375 C 5.875 -11.546875 6.390625 -11.144531 7.046875 -10.65625 C 7.710938 -10.164062 8.882812 -9.515625 10.5625 -8.703125 C 12.238281 -7.890625 13.722656 -7.484375 15.015625 -7.484375 C 18.742188 -7.484375 20.609375 -8.753906 20.609375 -11.296875 C 20.609375 -11.828125 20.472656 -12.316406 20.203125 -12.765625 C 19.941406 -13.222656 19.472656 -13.675781 18.796875 -14.125 C 18.117188 -14.582031 17.519531 -14.945312 17 -15.21875 C 16.488281 -15.488281 15.644531 -15.894531 14.46875 -16.4375 C 13.289062 -16.988281 12.421875 -17.40625 11.859375 -17.6875 C 9.503906 -18.851562 7.679688 -20.304688 6.390625 -22.046875 C 5.109375 -23.785156 4.46875 -25.65625 4.46875 -27.65625 C 4.46875 -31.144531 5.753906 -33.992188 8.328125 -36.203125 C 10.898438 -38.410156 13.832031 -39.515625 17.125 -39.515625 Z M 17.125 -39.515625 "/></g></g></g><path fill="#ffffff" d="M 79.816406 171.285156 C 79.898438 171.199219 79.980469 171.113281 80.0625 171.027344 C 80.148438 170.941406 80.234375 170.859375 80.324219 170.78125 C 81.898438 169.101562 82.835938 167.035156 83.136719 164.898438 C 80.996094 165.199219 78.933594 166.136719 77.25 167.710938 C 77.171875 167.796875 77.089844 167.886719 77.007812 167.96875 C 76.921875 168.054688 76.835938 168.136719 76.746094 168.214844 C 75.171875 169.894531 74.234375 171.960938 73.933594 174.097656 C 76.070312 173.800781 78.136719 172.863281 79.816406 171.285156 Z M 79.816406 171.285156 " fill-opacity="1" fill-rule="nonzero"/><path fill="#ffffff" d="M 62.777344 178.203125 C 62.847656 178.132812 62.917969 178.0625 62.992188 177.996094 C 63.558594 177.332031 63.867188 176.496094 63.867188 175.613281 C 63.867188 174.734375 63.558594 173.898438 62.992188 173.234375 C 62.917969 173.164062 62.847656 173.097656 62.777344 173.023438 C 62.707031 172.953125 62.636719 172.882812 62.566406 172.8125 C 61.902344 172.246094 61.070312 171.9375 60.1875 171.9375 C 59.203125 171.9375 58.28125 172.316406 57.585938 173.011719 C 56.890625 173.707031 56.507812 174.632812 56.507812 175.613281 C 56.507812 176.597656 56.890625 177.519531 57.585938 178.214844 C 58.28125 178.910156 59.203125 179.292969 60.1875 179.292969 C 61.070312 179.292969 61.902344 178.984375 62.566406 178.417969 C 62.636719 178.347656 62.707031 178.273438 62.777344 178.203125 Z M 62.777344 178.203125 " fill-opacity="1" fill-rule="nonzero"/><path fill="#ffffff" d="M 67.832031 158.796875 C 70.359375 156.265625 74.476562 156.265625 77.007812 158.796875 C 78.238281 160.027344 78.867188 161.632812 78.898438 163.25 C 80.257812 162.621094 81.699219 162.226562 83.160156 162.066406 C 82.878906 159.746094 81.851562 157.503906 80.074219 155.726562 C 77.964844 153.617188 75.191406 152.558594 72.417969 152.558594 C 69.644531 152.558594 66.875 153.617188 64.761719 155.726562 C 62.984375 157.503906 61.957031 159.746094 61.675781 162.066406 C 63.136719 162.226562 64.578125 162.621094 65.9375 163.25 C 65.96875 161.632812 66.601562 160.027344 67.832031 158.796875 Z M 67.832031 158.796875 " fill-opacity="1" fill-rule="nonzero"/><path fill="#ffffff" d="M 77.007812 192.433594 C 75.742188 193.699219 74.082031 194.332031 72.417969 194.332031 C 70.757812 194.332031 69.097656 193.699219 67.832031 192.433594 C 66.601562 191.203125 65.972656 189.601562 65.9375 187.984375 C 64.597656 188.609375 63.160156 189.011719 61.671875 189.171875 C 61.960938 191.5625 63.03125 193.773438 64.761719 195.503906 C 66.808594 197.546875 69.527344 198.675781 72.417969 198.675781 C 75.3125 198.675781 78.03125 197.546875 80.074219 195.503906 C 81.804688 193.773438 82.875 191.5625 83.167969 189.171875 C 81.675781 189.011719 80.238281 188.609375 78.898438 187.984375 C 78.867188 189.601562 78.234375 191.203125 77.007812 192.433594 Z M 77.007812 192.433594 " fill-opacity="1" fill-rule="nonzero"/><path fill="#ffffff" d="M 85.964844 164.871094 C 85.808594 166.332031 85.414062 167.773438 84.785156 169.132812 C 86.398438 169.167969 88.007812 169.796875 89.238281 171.027344 C 91.765625 173.554688 91.765625 177.671875 89.238281 180.203125 C 88.007812 181.429688 86.40625 182.0625 84.789062 182.09375 C 85.414062 183.433594 85.8125 184.871094 85.972656 186.363281 C 88.367188 186.074219 90.578125 185 92.308594 183.269531 C 96.527344 179.050781 96.527344 172.179688 92.308594 167.957031 C 90.53125 166.183594 88.285156 165.152344 85.964844 164.871094 Z M 85.964844 164.871094 " fill-opacity="1" fill-rule="nonzero"/><g clip-path="url(#0b4a0d1fba)"><path fill="#ffffff" d="M 72.417969 139.804688 C 52.640625 139.804688 36.605469 155.839844 36.605469 175.617188 C 36.605469 195.394531 52.640625 211.429688 72.417969 211.429688 C 92.199219 211.429688 108.230469 195.394531 108.230469 175.617188 C 108.230469 155.839844 92.199219 139.804688 72.417969 139.804688 Z M 94.292969 185.257812 C 92.035156 187.515625 89.125 188.882812 85.988281 189.1875 C 85.6875 192.320312 84.316406 195.230469 82.0625 197.488281 C 79.484375 200.0625 76.0625 201.480469 72.417969 201.480469 C 68.777344 201.480469 65.351562 200.0625 62.777344 197.488281 C 60.519531 195.230469 59.152344 192.320312 58.847656 189.1875 C 55.710938 188.882812 52.800781 187.515625 50.542969 185.257812 C 45.226562 179.941406 45.226562 171.289062 50.542969 165.972656 C 52.863281 163.652344 55.820312 162.34375 58.855469 162.050781 C 59.148438 159.015625 60.457031 156.058594 62.777344 153.742188 C 68.09375 148.425781 76.742188 148.425781 82.0625 153.742188 C 84.378906 156.058594 85.6875 159.015625 85.984375 162.050781 C 89.019531 162.34375 91.972656 163.652344 94.292969 165.972656 C 99.609375 171.289062 99.609375 179.941406 94.292969 185.257812 Z M 94.292969 185.257812 " fill-opacity="1" fill-rule="nonzero"/></g><path fill="#ffffff" d="M 53.699219 175.613281 C 53.699219 173.882812 54.375 172.253906 55.601562 171.027344 C 56.792969 169.832031 58.371094 169.164062 60.050781 169.128906 C 59.421875 167.773438 59.03125 166.332031 58.871094 164.871094 C 56.550781 165.152344 54.308594 166.183594 52.53125 167.957031 C 48.308594 172.179688 48.308594 179.050781 52.53125 183.269531 C 54.261719 185 56.472656 186.074219 58.863281 186.363281 C 59.023438 184.871094 59.425781 183.4375 60.046875 182.097656 C 58.367188 182.0625 56.792969 181.394531 55.601562 180.203125 C 54.375 178.976562 53.699219 177.347656 53.699219 175.613281 Z M 53.699219 175.613281 " fill-opacity="1" fill-rule="nonzero"/><path fill="#ffffff" d="M 67.832031 167.96875 C 67.746094 167.886719 67.664062 167.796875 67.585938 167.710938 C 65.90625 166.136719 63.839844 165.199219 61.703125 164.898438 C 62.003906 167.035156 62.941406 169.101562 64.515625 170.78125 C 64.601562 170.863281 64.691406 170.941406 64.773438 171.027344 C 64.859375 171.113281 64.941406 171.199219 65.019531 171.285156 C 66.699219 172.863281 68.765625 173.800781 70.902344 174.097656 C 70.605469 171.960938 69.664062 169.894531 68.089844 168.214844 C 68.003906 168.136719 67.917969 168.054688 67.832031 167.96875 Z M 67.832031 167.96875 " fill-opacity="1" fill-rule="nonzero"/><path fill="#ffffff" d="M 87.253906 178.214844 C 88.6875 176.78125 88.6875 174.449219 87.253906 173.011719 C 85.886719 171.648438 83.710938 171.582031 82.269531 172.8125 C 82.199219 172.882812 82.132812 172.953125 82.0625 173.023438 C 81.992188 173.09375 81.921875 173.164062 81.847656 173.230469 C 80.683594 174.601562 80.683594 176.628906 81.847656 177.996094 C 81.921875 178.066406 81.992188 178.132812 82.0625 178.203125 C 82.132812 178.273438 82.199219 178.347656 82.269531 178.417969 C 83.714844 179.644531 85.890625 179.578125 87.253906 178.214844 Z M 87.253906 178.214844 " fill-opacity="1" fill-rule="nonzero"/><path fill="#ffffff" d="M 72.417969 159.707031 C 71.476562 159.707031 70.535156 160.0625 69.816406 160.78125 C 68.453125 162.144531 68.386719 164.320312 69.617188 165.765625 C 69.6875 165.832031 69.757812 165.902344 69.828125 165.972656 C 69.898438 166.042969 69.96875 166.113281 70.035156 166.183594 C 71.40625 167.351562 73.433594 167.351562 74.800781 166.183594 C 74.871094 166.113281 74.9375 166.042969 75.007812 165.972656 C 75.078125 165.902344 75.148438 165.832031 75.222656 165.765625 C 76.449219 164.320312 76.382812 162.144531 75.019531 160.78125 C 74.304688 160.0625 73.359375 159.707031 72.417969 159.707031 Z M 72.417969 159.707031 " fill-opacity="1" fill-rule="nonzero"/><path fill="#ffffff" d="M 77.007812 183.257812 C 77.089844 183.34375 77.171875 183.429688 77.25 183.519531 C 78.894531 185.058594 80.9375 186.03125 83.140625 186.335938 C 82.835938 184.132812 81.863281 182.089844 80.324219 180.445312 C 80.234375 180.367188 80.148438 180.285156 80.0625 180.203125 C 79.976562 180.117188 79.898438 180.03125 79.816406 179.941406 C 78.136719 178.367188 76.070312 177.429688 73.933594 177.128906 C 74.234375 179.269531 75.171875 181.332031 76.746094 183.015625 C 76.835938 183.09375 76.921875 183.175781 77.007812 183.257812 Z M 77.007812 183.257812 " fill-opacity="1" fill-rule="nonzero"/><path fill="#ffffff" d="M 67.585938 183.519531 C 67.664062 183.429688 67.746094 183.34375 67.832031 183.257812 C 67.914062 183.175781 68.003906 183.09375 68.089844 183.015625 C 69.664062 181.332031 70.605469 179.269531 70.902344 177.128906 C 68.765625 177.429688 66.699219 178.367188 65.019531 179.941406 C 64.941406 180.03125 64.859375 180.117188 64.773438 180.203125 C 64.691406 180.285156 64.601562 180.367188 64.515625 180.445312 C 62.972656 182.089844 62 184.132812 61.695312 186.339844 C 63.898438 186.03125 65.941406 185.058594 67.585938 183.519531 Z M 67.585938 183.519531 " fill-opacity="1" fill-rule="nonzero"/><path fill="#ffffff" d="M 75.019531 190.449219 C 76.382812 189.085938 76.449219 186.910156 75.222656 185.464844 C 75.148438 185.394531 75.078125 185.328125 75.007812 185.257812 C 74.9375 185.1875 74.867188 185.113281 74.800781 185.042969 C 74.136719 184.476562 73.300781 184.167969 72.417969 184.167969 C 71.535156 184.167969 70.703125 184.476562 70.039062 185.042969 C 69.96875 185.113281 69.898438 185.1875 69.828125 185.257812 C 69.757812 185.328125 69.6875 185.394531 69.617188 185.464844 C 68.386719 186.910156 68.453125 189.085938 69.816406 190.449219 C 71.25 191.882812 73.585938 191.882812 75.019531 190.449219 Z M 75.019531 190.449219 " fill-opacity="1" fill-rule="nonzero"/></svg>